name rise44.9368peak50.754fall52.0217.mot
datacolumns 19
datarows 26
range 12.40329200000000 12.44495500000000
endheader
time	ground_force1_vx	ground_force1_vy	ground_force1_vz	ground_force1_px	ground_force1_py	ground_force1_pz	ground_force2_vx	ground_force2_vy	ground_force2_vz	ground_force2_px	ground_force2_py	ground_force2_pz	ground_torque1_x	ground_torque1_y	ground_torque1_z	ground_torque2_x	ground_torque2_y	ground_torque2_z	
12.40329200000000	-5.33891600000000	41.27522400000000	-3.44896600000000	0.34742200000000	0.00000000000000	0.10394200000000	-51.72846300000000	808.86991100000000	-70.48996300000000	0.15067700000000	0.00000000000000	-0.11259300000000	0.00000000000000	-2.13135000000000	0.00000000000000	0.00000000000000	-32.16025100000000	0.00000000000000	
12.40495800000000	-5.90189700000000	48.26099600000000	-3.85609800000000	0.35197100000000	0.00000000000000	0.10451700000000	-52.38462400000000	807.66790000000003	-70.22333600000000	0.14953300000000	0.00000000000000	-0.11255900000000	0.00000000000000	-2.41757700000000	0.00000000000000	0.00000000000000	-32.07475100000000	0.00000000000000	
12.40661900000000	-6.37385800000000	55.30182200000000	-4.21705600000000	0.35614500000000	0.00000000000000	0.10502900000000	-53.02558200000000	806.33692599999995	-69.92945800000000	0.14840600000000	0.00000000000000	-0.11252100000000	0.00000000000000	-2.68356900000000	0.00000000000000	0.00000000000000	-31.98124200000000	0.00000000000000	
12.40828600000000	-6.73926300000000	62.30357500000000	-4.52225400000000	0.36000200000000	0.00000000000000	0.10548800000000	-53.65100500000000	804.87482599999998	-69.60810600000001	0.14729800000000	0.00000000000000	-0.11247900000000	0.00000000000000	-2.92328100000000	0.00000000000000	0.00000000000000	-31.87977500000000	0.00000000000000	
12.40995200000000	-6.98803900000000	69.19551700000000	-4.76531200000000	0.36358500000000	0.00000000000000	0.10590100000000	-54.26059200000000	803.27952600000003	-69.25908800000001	0.14620900000000	0.00000000000000	-0.11243200000000	0.00000000000000	-3.13253500000000	0.00000000000000	0.00000000000000	-31.77041100000000	0.00000000000000	
12.41162700000000	-7.11557900000000	75.93238700000001	-4.94309000000000	0.36693300000000	0.00000000000000	0.10627400000000	-54.85407200000000	801.54905299999996	-68.88225100000000	0.14514100000000	0.00000000000000	-0.11238100000000	0.00000000000000	-3.30908100000000	0.00000000000000	0.00000000000000	-31.65322400000000	0.00000000000000	
12.41328700000000	-7.12229600000000	82.49403400000000	-5.05544400000000	0.37007500000000	0.00000000000000	0.10661400000000	-55.43120000000000	799.68153500000005	-68.47747300000000	0.14409300000000	0.00000000000000	-0.11232500000000	0.00000000000000	-3.45249100000000	0.00000000000000	0.00000000000000	-31.52829800000000	0.00000000000000	
12.41495900000000	-7.01286000000000	88.88305500000000	-5.10478300000000	0.37303700000000	0.00000000000000	0.10692400000000	-55.99176600000000	797.67521099999999	-68.04467099999999	0.14306700000000	0.00000000000000	-0.11226500000000	0.00000000000000	-3.56391900000000	0.00000000000000	0.00000000000000	-31.39572900000000	0.00000000000000	
12.41662600000000	-6.79520800000000	95.12096400000000	-5.09549600000000	0.37584000000000	0.00000000000000	0.10720800000000	-56.53558900000000	795.52843499999994	-67.58379800000000	0.14206300000000	0.00000000000000	-0.11220000000000	0.00000000000000	-3.64577000000000	0.00000000000000	0.00000000000000	-31.25562100000000	0.00000000000000	
12.41829200000000	-6.47947300000000	101.24347600000000	-5.03331500000000	0.37850100000000	0.00000000000000	0.10746900000000	-57.06251800000000	793.23968200000002	-67.09484800000000	0.14108300000000	0.00000000000000	-0.11213000000000	0.00000000000000	-3.70132000000000	0.00000000000000	0.00000000000000	-31.10809200000000	0.00000000000000	
12.41995800000000	-6.07692300000000	107.29543900000000	-4.92467500000000	0.38103600000000	0.00000000000000	0.10770900000000	-57.57243400000000	790.80755399999998	-66.57785400000000	0.14012700000000	0.00000000000000	-0.11205500000000	0.00000000000000	-3.73433300000000	0.00000000000000	0.00000000000000	-30.95326800000000	0.00000000000000	
12.42162000000000	-5.59899500000000	113.32590500000001	-4.77613900000000	0.38345700000000	0.00000000000000	0.10793100000000	-58.06525000000000	788.23078399999997	-66.03288700000000	0.13919500000000	0.00000000000000	-0.11197400000000	0.00000000000000	-3.74869400000000	0.00000000000000	0.00000000000000	-30.79128400000000	0.00000000000000	
12.42329100000000	-5.05648600000000	119.38368699999999	-4.59390100000000	0.38577500000000	0.00000000000000	0.10813700000000	-58.54090500000000	785.50823800000001	-65.46006400000000	0.13829000000000	0.00000000000000	-0.11188900000000	0.00000000000000	-3.74810300000000	0.00000000000000	0.00000000000000	-30.62228800000000	0.00000000000000	
12.42495700000000	-4.45894200000000	125.51368700000000	-4.38341200000000	0.38799900000000	0.00000000000000	0.10832800000000	-58.99937200000000	782.63892399999997	-64.85954099999999	0.13741100000000	0.00000000000000	-0.11179800000000	0.00000000000000	-3.73582900000000	0.00000000000000	0.00000000000000	-30.44643300000000	0.00000000000000	
12.42662300000000	-3.81425200000000	131.75413300000000	-4.14912400000000	0.39013700000000	0.00000000000000	0.10850600000000	-59.44064900000000	779.62199099999998	-64.23151900000001	0.13655900000000	0.00000000000000	-0.11170100000000	0.00000000000000	-3.71453300000000	0.00000000000000	0.00000000000000	-30.26388400000000	0.00000000000000	
12.42828700000000	-3.12843900000000	138.13478200000000	-3.89435900000000	0.39219600000000	0.00000000000000	0.10867200000000	-59.86476300000000	776.45673199999999	-63.57624100000000	0.13573400000000	0.00000000000000	-0.11159900000000	0.00000000000000	-3.68618000000000	0.00000000000000	0.00000000000000	-30.07481300000000	0.00000000000000	
12.42995700000000	-2.40564300000000	144.67603700000001	-3.62128500000000	0.39418100000000	0.00000000000000	0.10882800000000	-60.27176800000000	773.14258900000004	-62.89399700000000	0.13493800000000	0.00000000000000	-0.11149100000000	0.00000000000000	-3.65200600000000	0.00000000000000	0.00000000000000	-29.87939700000000	0.00000000000000	
12.43162400000000	-1.64824900000000	151.38890499999999	-3.33098400000000	0.39609700000000	0.00000000000000	0.10897300000000	-60.66174000000000	769.67915200000004	-62.18511900000000	0.13417100000000	0.00000000000000	-0.11137800000000	0.00000000000000	-3.61254900000000	0.00000000000000	0.00000000000000	-29.67782400000000	0.00000000000000	
12.43328900000000	-0.85712500000000	158.27561600000001	-3.02359200000000	0.39794900000000	0.00000000000000	0.10910900000000	-61.03477900000000	766.06616299999996	-61.44998700000000	0.13343300000000	0.00000000000000	-0.11125800000000	0.00000000000000	-3.56773200000000	0.00000000000000	0.00000000000000	-29.47028600000000	0.00000000000000	
12.43496000000000	-0.03194200000000	165.33075900000000	-2.69848400000000	0.39973900000000	0.00000000000000	0.10923700000000	-61.39100400000000	762.30351399999995	-60.68902400000000	0.13272500000000	0.00000000000000	-0.11113300000000	0.00000000000000	-3.51696500000000	0.00000000000000	0.00000000000000	-29.25698200000000	0.00000000000000	
12.43662200000000	0.82847400000000	172.54273800000001	-2.35448500000000	0.40147100000000	0.00000000000000	0.10935800000000	-61.73055400000000	758.39124600000002	-59.90270100000000	0.13204800000000	0.00000000000000	-0.11100100000000	0.00000000000000	-3.45928000000000	0.00000000000000	0.00000000000000	-29.03811300000000	0.00000000000000	
12.43828700000000	1.72578200000000	179.89539099999999	-1.99008500000000	0.40314800000000	0.00000000000000	0.10947100000000	-62.05358200000000	754.32955300000003	-59.09153100000000	0.13140100000000	0.00000000000000	-0.11086300000000	0.00000000000000	-3.39345800000000	0.00000000000000	0.00000000000000	-28.81388600000000	0.00000000000000	
12.43995400000000	2.66179400000000	187.36961700000001	-1.60364100000000	0.40477000000000	0.00000000000000	0.10957800000000	-62.36025600000000	750.11877600000003	-58.25607800000000	0.13078500000000	0.00000000000000	-0.11071900000000	0.00000000000000	-3.31816400000000	0.00000000000000	0.00000000000000	-28.58451200000000	0.00000000000000	
12.44162800000000	3.63818100000000	194.94488600000000	-1.19355500000000	0.40634100000000	0.00000000000000	0.10967900000000	-62.65075200000000	745.75940600000001	-57.39694500000000	0.13020000000000	0.00000000000000	-0.11056800000000	0.00000000000000	-3.23205500000000	0.00000000000000	0.00000000000000	-28.35020200000000	0.00000000000000	
12.44329000000000	4.65624500000000	202.60056000000000	-0.75841900000000	0.40786100000000	0.00000000000000	0.10977500000000	-62.92525500000000	741.25207699999999	-56.51478600000000	0.12964600000000	0.00000000000000	-0.11041100000000	0.00000000000000	-3.13387800000000	0.00000000000000	0.00000000000000	-28.11116900000000	0.00000000000000	
12.44495500000000	5.71674500000000	210.31694400000001	-0.29712200000000	0.40933100000000	0.00000000000000	0.10986600000000	-63.18395300000000	736.59756500000003	-55.61029400000000	0.12912500000000	0.00000000000000	-0.11024800000000	0.00000000000000	-3.02254400000000	0.00000000000000	0.00000000000000	-27.86762700000000	0.00000000000000	
